<svg width="16" height="17" viewBox="0 0 16 17" fill="none" xmlns="http://www.w3.org/2000/svg">
<path fill-rule="evenodd" clip-rule="evenodd" d="M0.833008 8.49967C0.833008 12.453 4.04634 15.6663 7.99967 15.6663C11.953 15.6663 15.1663 12.453 15.1663 8.49967C15.1663 4.54634 11.953 1.33301 7.99967 1.33301C4.04634 1.33301 0.833008 4.54634 0.833008 8.49967ZM1.83301 8.49967C1.83301 5.09967 4.59967 2.33301 7.99967 2.33301C11.3997 2.33301 14.1663 5.09967 14.1663 8.49967C14.1663 11.8997 11.3997 14.6663 7.99967 14.6663C4.59967 14.6663 1.83301 11.8997 1.83301 8.49967ZM10.2197 11.0463C10.2997 11.0997 10.3864 11.1197 10.473 11.1197C10.6397 11.1197 10.8064 11.033 10.9064 10.873C11.0464 10.633 10.973 10.3263 10.733 10.1863L8.66635 8.95301C8.45968 8.83301 8.25968 8.47968 8.25968 8.23968V5.50635C8.25968 5.23301 8.03302 5.00635 7.75968 5.00635C7.48635 5.00635 7.25968 5.23301 7.25968 5.50635V8.23968C7.25968 8.83301 7.63968 9.50635 8.15302 9.81301L10.2197 11.0463Z" fill="#595959"/>
</svg>
